<svg width="45" height="50" viewBox="0 0 45 50" fill="none" xmlns="http://www.w3.org/2000/svg">
<path fill-rule="evenodd" clip-rule="evenodd" d="M21.4221 0.676658C21.8641 -0.225552 23.1258 -0.225553 23.5678 0.676657L44.4995 43.3989C44.9794 44.3783 44.0541 45.4588 43.0387 45.1046L36.8181 42.9348C36.8118 42.9201 36.8051 42.9053 36.7979 42.8906L23.1923 15.1212C22.905 14.5347 22.0849 14.5347 21.7976 15.1212L8.19198 42.8906C8.18478 42.9053 8.17807 42.9201 8.17184 42.9348L1.95117 45.1046C0.935818 45.4588 0.0105096 44.3783 0.490379 43.3989L21.4221 0.676658Z" fill="#19A2E6"/>
<path d="M14.693 42.0838C14.4388 41.8244 14.3772 41.4275 14.5403 41.1006L21.7112 26.7273C22.019 26.1104 22.8829 26.1104 23.1907 26.7273L30.3618 41.1005C30.5249 41.4274 30.4632 41.8243 30.209 42.0837L23.0379 49.4011C22.7137 49.7319 22.1882 49.7319 21.864 49.4011L14.693 42.0838Z" fill="#19A2E6"/>
</svg>
