<svg width="19" height="19" viewBox="0 0 19 19" fill="none" xmlns="http://www.w3.org/2000/svg">
<circle cx="9.5" cy="9.5" r="8.5" fill="#1760A5" stroke="white" stroke-width="2"/>
<path d="M9.53073 14.74C8.83073 14.74 8.22407 14.6233 7.71073 14.39C7.1974 14.1567 6.80073 13.8253 6.52073 13.396C6.25007 12.9573 6.11007 12.444 6.10073 11.856H7.85073C7.85073 12.276 8.00007 12.6073 8.29873 12.85C8.60673 13.0833 9.02207 13.2 9.54473 13.2C10.0487 13.2 10.4407 13.0833 10.7207 12.85C11.0101 12.6167 11.1547 12.2947 11.1547 11.884C11.1547 11.5387 11.0521 11.24 10.8467 10.988C10.6507 10.7267 10.3661 10.5493 9.99273 10.456L8.81673 10.134C8.01407 9.92866 7.3934 9.56 6.95473 9.028C6.5254 8.496 6.31073 7.852 6.31073 7.096C6.31073 6.51733 6.4414 6.01333 6.70273 5.584C6.96407 5.15466 7.33273 4.82333 7.80873 4.59C8.29407 4.35666 8.8634 4.24 9.51673 4.24C10.5061 4.24 11.2901 4.49666 11.8687 5.01C12.4474 5.514 12.7414 6.19533 12.7507 7.054H11.0007C11.0007 6.65266 10.8701 6.34 10.6087 6.116C10.3474 5.88266 9.97873 5.766 9.50273 5.766C9.0454 5.766 8.69073 5.87333 8.43873 6.088C8.18673 6.30266 8.06073 6.606 8.06073 6.998C8.06073 7.35266 8.15407 7.656 8.34073 7.908C8.53673 8.15066 8.81673 8.32333 9.18073 8.426L10.3987 8.762C11.2107 8.96733 11.8314 9.336 12.2607 9.868C12.6901 10.3907 12.9047 11.0393 12.9047 11.814C12.9047 12.3927 12.7647 12.906 12.4847 13.354C12.2047 13.7927 11.8127 14.1333 11.3087 14.376C10.8047 14.6187 10.2121 14.74 9.53073 14.74Z" fill="white"/>
</svg>
