<svg width="512" height="512" viewBox="0 0 512 512" fill="none" xmlns="http://www.w3.org/2000/svg">
<path fill-rule="evenodd" clip-rule="evenodd" d="M229.297 311.926C231.358 313.119 233.256 314.574 234.942 316.256L302.278 383.429C316.895 398.011 317.07 421.59 302.781 436.386L302.265 436.91L292.297 446.786C282.035 456.953 266.509 459.616 253.445 453.45L178.987 418.306C161.825 410.205 154.479 389.726 162.579 372.564C162.988 371.697 163.434 370.848 163.914 370.019L191.735 321.948C199.34 308.808 216.157 304.321 229.297 311.926ZM258.636 57.7446C261.786 59.5546 264.402 62.1648 266.219 65.3109L279.421 88.1742C285.566 98.8174 285.56 111.933 279.404 122.57L132.475 376.44C129.569 381.461 123.142 383.176 118.121 380.27C116.544 379.357 115.231 378.049 114.312 376.475C108.266 366.121 103.653 354.994 100.601 343.399L98.2056 334.3C93.7239 317.275 96.1293 299.169 104.901 283.904L230.488 65.3487C236.161 55.476 248.764 52.0715 258.636 57.7446ZM316.943 160.487C321.11 162.898 324.571 166.363 326.979 170.532L355.898 220.613C363.49 233.76 358.986 250.573 345.839 258.165C341.659 260.578 336.918 261.849 332.092 261.849H268.231C254.946 261.849 244.177 251.08 244.177 237.795C244.177 233.565 245.293 229.409 247.412 225.747L279.381 170.509C286.985 157.369 303.802 152.882 316.943 160.487Z" fill="white"/>
<path fill-rule="evenodd" clip-rule="evenodd" d="M404.685 305.1C411.252 316.473 409.327 330.844 399.997 340.087L368.047 371.74C355.963 383.71 336.481 383.677 324.44 371.664L267.782 315.144C261.065 308.442 261.051 297.564 267.753 290.846C270.976 287.615 275.352 285.799 279.916 285.799H371.252C385.044 285.799 397.788 293.156 404.685 305.1Z" fill="#2161FF"/>
</svg>
