<svg width="70" height="27" viewBox="0 0 70 27" fill="none" xmlns="http://www.w3.org/2000/svg">
<path d="M44.7842 11.7296L50.678 7.8536C51.0555 7.53423 51.2587 7.15679 51.2877 6.70677C51.3313 6.18416 51.2151 5.79221 50.9248 5.48736C50.6345 5.15347 50.257 4.96475 49.778 4.9212C49.2554 4.87765 48.8634 4.99379 48.5586 5.29864L40.9227 10.3069V8.33265V5.02282V1.6404C40.9227 1.19038 40.7485 0.798418 40.4146 0.464531C40.0372 0.145161 39.6452 0 39.2388 0C38.8323 0 38.4404 0.159678 38.0629 0.464531C37.7435 0.841969 37.5984 1.23393 37.5984 1.6404V5.02282V8.33265V20.1348C37.5984 20.5994 37.7581 20.9913 38.0629 21.3107C38.3968 21.6446 38.7887 21.8188 39.2388 21.8188C39.6888 21.8188 40.0808 21.6446 40.4146 21.3107C40.7485 20.9913 40.9227 20.5994 40.9227 20.1348V14.241L41.9679 13.5297L48.3699 21.2091C48.6892 21.6156 49.1102 21.8188 49.6474 21.8188C50.0538 21.8188 50.4022 21.6881 50.6926 21.4123C51.07 21.093 51.2732 20.73 51.3023 20.2945C51.3458 19.7719 51.2297 19.38 50.9393 19.0896L44.7842 11.7296Z" fill="white"/>
<path d="M33.708 3.32435C34.1725 3.32435 34.5645 3.16466 34.8838 2.85981C35.2032 2.54044 35.3484 2.14849 35.3484 1.68395C35.3484 1.21941 35.1887 0.827459 34.8838 0.508089C34.55 0.174202 34.158 0 33.708 0C33.258 0 32.866 0.174202 32.5321 0.508089C32.1982 0.841976 32.024 1.23393 32.024 1.68395C32.024 2.13397 32.1982 2.52592 32.5321 2.85981C32.8515 3.17918 33.2435 3.32435 33.708 3.32435Z" fill="white"/>
<path d="M33.7081 5.03729C33.2436 5.03729 32.8371 5.19698 32.5322 5.50183C32.1984 5.83572 32.0242 6.22768 32.0242 6.6777V20.2509C32.0242 20.7155 32.1984 21.1219 32.5322 21.4268C32.8516 21.7607 33.2436 21.9349 33.7081 21.9349C34.1581 21.9349 34.5501 21.7607 34.884 21.4268C35.2033 21.1074 35.3485 20.7155 35.3485 20.2509V6.6777C35.3485 6.27123 35.1888 5.87927 34.884 5.50183C34.5065 5.18246 34.1146 5.03729 33.7081 5.03729Z" fill="white"/>
<path d="M69.1294 20.1784C69.1294 20.6719 68.9697 21.0784 68.6649 21.3833C68.3455 21.7026 67.9536 21.8478 67.46 21.8478C67.1406 21.8478 66.7922 21.6881 66.4148 21.3833C66.0373 21.0058 65.8486 20.5994 65.8486 20.1784C64.455 21.2962 62.8001 21.8623 60.8693 21.8623C58.4886 21.8623 56.4852 21.0784 54.8448 19.5106C53.1899 17.9137 52.348 15.9394 52.348 13.5877C52.348 11.236 53.1754 9.21816 54.8448 7.56324C56.4998 5.90832 58.5176 5.06635 60.8693 5.06635C63.2211 5.06635 65.1953 5.89381 66.7922 7.56324C68.36 9.20364 69.1439 11.207 69.1439 13.5877V20.1784H69.1294ZM60.8403 18.567C62.2484 18.567 63.4388 18.0879 64.4115 17.1153C65.355 16.1717 65.8196 14.9959 65.8196 13.5877C65.8196 12.1506 65.355 10.9311 64.4115 9.91497C63.4533 8.88427 62.2629 8.36167 60.8403 8.36167C59.4322 8.36167 58.1982 8.88427 57.1675 9.91497C56.1368 10.9457 55.6142 12.1651 55.6142 13.5877C55.6142 14.9813 56.1368 16.1572 57.1675 17.1153C58.1402 18.0879 59.3596 18.567 60.8403 18.567Z" fill="white"/>
<path d="M27.7127 7.65039C26.0578 5.99547 24.04 5.1535 21.6882 5.1535C19.3365 5.1535 17.3622 5.98096 15.7654 7.65039C14.1975 9.29079 13.4136 11.2941 13.4136 13.6749V18.93V20.2655V25.2448C13.4136 25.6513 13.5733 26.0432 13.8782 26.4207C14.2556 26.74 14.6476 26.8852 15.054 26.8852C15.4605 26.8852 15.8525 26.7255 16.2299 26.4207C16.5638 26.0868 16.738 25.6948 16.738 25.2448V20.2945C18.1171 21.3978 19.772 21.9495 21.6882 21.9495C24.069 21.9495 26.0723 21.1656 27.7127 19.5977C29.3676 18.0009 30.2096 16.0266 30.2096 13.6749C30.2096 11.3231 29.3821 9.31983 27.7127 7.65039ZM25.361 17.217C24.4029 18.1751 23.1689 18.6687 21.6882 18.6687C20.2801 18.6687 19.0897 18.1896 18.1171 17.217C17.1735 16.2734 16.709 15.0975 16.709 13.6894C16.709 12.2522 17.1735 11.0328 18.1171 10.0166C19.0752 8.98595 20.2656 8.46334 21.6882 8.46334C23.0964 8.46334 24.3303 8.98595 25.361 10.0166C26.3917 11.0473 26.9143 12.2667 26.9143 13.6894C26.9143 15.0685 26.3917 16.2589 25.361 17.217Z" fill="white"/>
<path d="M11.2796 16.433C11.265 16.3459 11.2651 16.2588 11.2505 16.1717C11.236 16.0846 11.2215 15.9975 11.207 15.9249C11.1054 15.4314 10.9166 14.9668 10.6553 14.5458C10.5828 14.4442 10.5247 14.3426 10.4521 14.2265C10.2344 13.9216 9.95854 13.6313 9.65369 13.3409C8.53589 12.3538 7.20033 11.8602 5.64703 11.8602C5.12443 11.8602 4.6599 11.686 4.28246 11.3521C3.94858 11.0618 3.75985 10.7279 3.73082 10.336C3.73082 10.2924 3.71629 10.2343 3.71629 10.1763V10.1618C3.71629 10.1037 3.7163 10.0601 3.73082 10.0021C3.73082 9.95852 3.74531 9.91497 3.74531 9.87142C3.78886 9.62463 3.87596 9.40688 4.03565 9.20364C4.06468 9.16009 4.10824 9.10203 4.15179 9.07299C4.19534 9.02944 4.23891 8.98589 4.28246 8.94234C4.6599 8.60845 5.10991 8.43425 5.64703 8.43425C5.7051 8.43425 5.76316 8.43425 5.82123 8.43425C6.50352 8.46328 6.95356 8.68104 7.25841 9.05847C7.331 9.14557 7.38906 9.23268 7.43261 9.3343C7.62133 9.69722 7.86811 10.0311 8.18748 10.2489C8.57943 10.5392 9.07299 10.6844 9.66818 10.5682C9.69722 10.5682 9.71174 10.5537 9.74077 10.5537C10.5537 10.365 11.1344 9.63915 11.1199 8.79717V8.78266C11.1199 8.66652 11.1053 8.53587 11.0763 8.41974C11.0763 8.40522 11.0763 8.3907 11.0618 8.37618C11.0618 8.37618 11.0618 8.37618 11.0618 8.36167C10.8441 7.51969 10.2343 6.77933 9.26171 6.11156C8.3907 5.55992 7.43261 5.21151 6.41643 5.10989C6.32933 5.09538 6.24222 5.09538 6.15512 5.08087C5.99543 5.06635 5.83576 5.06635 5.66156 5.06635C4.09374 5.06635 2.75818 5.55992 1.6549 6.54706C1.64039 6.56158 1.62588 6.5761 1.62588 6.5761C0.667767 7.44711 0.13063 8.4778 0.0144956 9.65367C0.0144956 9.72625 0 9.81335 0 9.88593C0 9.97303 0 10.0456 0 10.1327C0 10.2053 0 10.2924 0 10.365C0.0145168 10.6263 0.0435434 10.8876 0.101611 11.1344C0.159678 11.3812 0.232262 11.6134 0.319363 11.8457C0.406464 12.078 0.522606 12.2957 0.653257 12.5135C0.696808 12.5861 0.740344 12.6586 0.783894 12.7312C1.01616 13.0651 1.32103 13.3845 1.66943 13.6893C2.77271 14.6765 4.10824 15.1701 5.67606 15.1701C6.19866 15.1701 6.66322 15.3443 7.04066 15.6782C7.37455 15.983 7.56324 16.3314 7.59227 16.7379C7.59227 16.7959 7.6068 16.854 7.6068 16.9121V16.9266C7.6068 16.9701 7.60679 17.0282 7.59227 17.0718C7.59227 17.1153 7.57778 17.1589 7.57778 17.2024C7.54874 17.3331 7.5197 17.4492 7.46163 17.5653C7.4326 17.6234 7.40355 17.667 7.37452 17.725C7.28742 17.8702 7.1713 18.0154 7.02613 18.1315C6.64869 18.4654 6.19868 18.6396 5.66156 18.6396C5.60349 18.6396 5.5454 18.6396 5.48733 18.6396C4.92118 18.6106 4.44213 18.4073 4.07921 18.0299C4.00662 17.9428 3.94855 17.8412 3.89048 17.7395C3.70176 17.3621 3.44047 17.0282 3.10659 16.7959C2.71463 16.5201 2.23558 16.3895 1.6549 16.4911C1.64039 16.4911 1.61135 16.5056 1.58232 16.5056C0.783894 16.6943 0.188705 17.4202 0.203221 18.2476V18.2621C0.203221 18.3783 0.217745 18.5089 0.246779 18.6251C0.246779 18.6396 0.246758 18.6541 0.261275 18.6541C0.479027 19.4961 1.08873 20.2509 2.07588 20.9187C3.03399 21.5284 4.0647 21.8768 5.1825 21.9494C5.34218 21.9639 5.50186 21.9639 5.67606 21.9639C7.24387 21.9639 8.57944 21.4704 9.68272 20.4832C10.6553 19.5541 11.1925 18.5234 11.3231 17.3766C11.3231 17.2895 11.3376 17.2169 11.3376 17.1298C11.3376 17.0573 11.3376 16.9847 11.3376 16.9121C11.2941 16.7814 11.2941 16.6072 11.2796 16.433ZM4.05018 21.8188C3.99211 21.8042 3.91952 21.7897 3.86145 21.7607C3.91952 21.7752 3.99211 21.7897 4.05018 21.8188ZM3.61468 21.6736C3.60016 21.6591 3.57114 21.6591 3.55662 21.6591C3.57114 21.6591 3.58564 21.6736 3.61468 21.6736ZM3.29531 21.5575C3.22273 21.5284 3.16464 21.4994 3.09206 21.4704C3.16464 21.4994 3.22273 21.5284 3.29531 21.5575ZM2.97595 21.4123C2.88885 21.3687 2.80174 21.3252 2.71464 21.2816C2.74367 21.2962 2.78722 21.3252 2.81625 21.3397C2.87432 21.3687 2.91788 21.3833 2.97595 21.4123ZM2.49689 21.151C2.55495 21.1945 2.62755 21.2236 2.68561 21.2671C2.49689 21.1655 2.29366 21.0349 2.10494 20.9042C2.23559 20.9913 2.36624 21.0784 2.49689 21.151ZM4.23891 21.8623C4.29697 21.8768 4.35503 21.8914 4.4131 21.9059C4.35503 21.8914 4.29697 21.8768 4.23891 21.8623ZM4.60183 21.9349C4.67441 21.9494 4.76149 21.9639 4.83407 21.9639C4.76149 21.9494 4.67441 21.9494 4.60183 21.9349Z" fill="white"/>
</svg>
